<?xml version="1.0" encoding="UTF-8" standalone="no"?>
<!DOCTYPE svg PUBLIC "-//W3C//DTD SVG 1.1//EN" "http://www.w3.org/Graphics/SVG/1.1/DTD/svg11.dtd">
<svg width="100%" height="100%" viewBox="0 0 420 100" version="1.1" xmlns="http://www.w3.org/2000/svg" xmlns:xlink="http://www.w3.org/1999/xlink" xml:space="preserve" xmlns:serif="http://www.serif.com/" style="fill-rule:evenodd;clip-rule:evenodd;stroke-linejoin:round;stroke-miterlimit:2;">
    <path d="M210.472,0C210.472,0 219.485,99.863 210,100C137.345,101.051 66.209,73.803 21,41C-9.436,18.916 -5.863,-0.171 33,0C60.081,0.119 210.472,0 210.472,0Z" style="fill:rgb(255,0,0);"/>
    <g transform="matrix(-1,0,0,1,419.941511,0)">
        <path d="M210.472,0C210.472,0 219.485,99.863 210,100C137.345,101.051 66.209,73.803 21,41C-9.436,18.916 -5.863,-0.171 33,0C60.081,0.119 210.472,0 210.472,0Z" style="fill:rgb(255,0,0);"/>
    </g>
</svg>
