<svg width="720" height="720" viewBox="0 0 720 720" fill="none" xmlns="http://www.w3.org/2000/svg">
<g clip-path="url(#clip0_178_33)">
<circle cx="360" cy="360" r="353" fill="black" stroke="#7D23BE" stroke-width="14"/>
<circle cx="359.5" cy="638.5" r="53.5" fill="#0F5BF9"/>
<path d="M359.498 655.665C356.691 655.665 354.282 654.955 352.271 653.534C350.271 652.102 348.731 650.04 347.651 647.347C346.583 644.642 346.049 641.386 346.049 637.58C346.06 633.773 346.6 630.534 347.668 627.864C348.748 625.182 350.288 623.136 352.288 621.727C354.299 620.318 356.702 619.614 359.498 619.614C362.293 619.614 364.697 620.318 366.708 621.727C368.719 623.136 370.259 625.182 371.327 627.864C372.407 630.545 372.947 633.784 372.947 637.58C372.947 641.398 372.407 644.659 371.327 647.364C370.259 650.057 368.719 652.114 366.708 653.534C364.708 654.955 362.305 655.665 359.498 655.665ZM359.498 650.33C361.68 650.33 363.401 649.256 364.663 647.108C365.935 644.949 366.572 641.773 366.572 637.58C366.572 634.807 366.282 632.477 365.702 630.591C365.123 628.705 364.305 627.284 363.248 626.33C362.191 625.364 360.941 624.881 359.498 624.881C357.327 624.881 355.612 625.96 354.35 628.119C353.089 630.267 352.452 633.42 352.441 637.58C352.43 640.364 352.708 642.705 353.276 644.602C353.856 646.5 354.674 647.932 355.731 648.898C356.788 649.852 358.043 650.33 359.498 650.33Z" fill="white"/>
<circle cx="475.5" cy="522.5" r="53.5" fill="#0F5BF9"/>
<path d="M475.659 503.614C477.33 503.625 478.955 503.92 480.534 504.5C482.125 505.068 483.557 506 484.83 507.295C486.102 508.58 487.114 510.301 487.864 512.46C488.614 514.619 488.989 517.29 488.989 520.472C489 523.472 488.682 526.153 488.034 528.517C487.398 530.869 486.483 532.858 485.29 534.483C484.097 536.108 482.659 537.347 480.977 538.199C479.295 539.051 477.403 539.477 475.301 539.477C473.097 539.477 471.142 539.045 469.438 538.182C467.744 537.318 466.375 536.136 465.33 534.636C464.284 533.136 463.642 531.42 463.403 529.489H469.625C469.943 530.875 470.591 531.977 471.568 532.795C472.557 533.602 473.801 534.006 475.301 534.006C477.722 534.006 479.585 532.955 480.892 530.852C482.199 528.75 482.852 525.83 482.852 522.091H482.614C482.057 523.091 481.335 523.955 480.449 524.682C479.563 525.398 478.557 525.949 477.432 526.335C476.318 526.722 475.136 526.915 473.886 526.915C471.841 526.915 470 526.426 468.364 525.449C466.739 524.472 465.449 523.131 464.494 521.426C463.551 519.722 463.074 517.773 463.062 515.58C463.062 513.307 463.585 511.267 464.631 509.46C465.688 507.642 467.159 506.21 469.045 505.165C470.932 504.108 473.136 503.591 475.659 503.614ZM475.676 508.727C474.449 508.727 473.341 509.028 472.352 509.631C471.375 510.222 470.602 511.028 470.034 512.051C469.477 513.062 469.199 514.193 469.199 515.443C469.21 516.682 469.489 517.807 470.034 518.818C470.591 519.83 471.347 520.631 472.301 521.222C473.267 521.812 474.369 522.108 475.608 522.108C476.528 522.108 477.386 521.932 478.182 521.58C478.977 521.227 479.67 520.739 480.261 520.114C480.864 519.477 481.33 518.756 481.659 517.949C482 517.142 482.165 516.29 482.153 515.392C482.153 514.199 481.869 513.097 481.301 512.085C480.744 511.074 479.977 510.261 479 509.648C478.034 509.034 476.926 508.727 475.676 508.727Z" fill="white"/>
<circle cx="359.5" cy="522.5" r="53.5" fill="#0F5BF9"/>
<path d="M360.519 539.477C357.985 539.477 355.735 539.051 353.769 538.199C351.815 537.347 350.281 536.182 349.167 534.705C348.065 533.216 347.519 531.528 347.531 529.642C347.519 528.176 347.837 526.83 348.485 525.602C349.133 524.375 350.008 523.352 351.11 522.534C352.224 521.705 353.462 521.176 354.826 520.949V520.71C353.031 520.312 351.576 519.398 350.462 517.966C349.36 516.523 348.815 514.858 348.826 512.972C348.815 511.176 349.315 509.574 350.326 508.165C351.337 506.756 352.724 505.648 354.485 504.841C356.246 504.023 358.258 503.614 360.519 503.614C362.758 503.614 364.752 504.023 366.502 504.841C368.263 505.648 369.65 506.756 370.661 508.165C371.684 509.574 372.195 511.176 372.195 512.972C372.195 514.858 371.633 516.523 370.508 517.966C369.394 519.398 367.957 520.312 366.195 520.71V520.949C367.559 521.176 368.786 521.705 369.877 522.534C370.979 523.352 371.854 524.375 372.502 525.602C373.161 526.83 373.491 528.176 373.491 529.642C373.491 531.528 372.934 533.216 371.82 534.705C370.707 536.182 369.173 537.347 367.218 538.199C365.275 539.051 363.042 539.477 360.519 539.477ZM360.519 534.602C361.826 534.602 362.962 534.381 363.928 533.938C364.894 533.483 365.644 532.847 366.178 532.028C366.712 531.21 366.985 530.267 366.996 529.199C366.985 528.085 366.695 527.102 366.127 526.25C365.57 525.386 364.803 524.71 363.826 524.222C362.86 523.733 361.758 523.489 360.519 523.489C359.269 523.489 358.156 523.733 357.178 524.222C356.201 524.71 355.428 525.386 354.86 526.25C354.303 527.102 354.031 528.085 354.042 529.199C354.031 530.267 354.292 531.21 354.826 532.028C355.36 532.835 356.11 533.466 357.076 533.92C358.053 534.375 359.201 534.602 360.519 534.602ZM360.519 518.699C361.587 518.699 362.531 518.483 363.349 518.051C364.178 517.619 364.832 517.017 365.309 516.244C365.786 515.472 366.031 514.58 366.042 513.568C366.031 512.568 365.792 511.693 365.326 510.943C364.86 510.182 364.212 509.597 363.383 509.188C362.553 508.767 361.599 508.557 360.519 508.557C359.417 508.557 358.445 508.767 357.604 509.188C356.775 509.597 356.127 510.182 355.661 510.943C355.207 511.693 354.985 512.568 354.996 513.568C354.985 514.58 355.212 515.472 355.678 516.244C356.156 517.006 356.809 517.608 357.638 518.051C358.479 518.483 359.44 518.699 360.519 518.699Z" fill="white"/>
<circle cx="243.5" cy="522.5" r="53.5" fill="#0F5BF9"/>
<path d="M233.795 539L248.641 509.614V509.375H231.408V504.091H255.187V509.494L240.357 539H233.795Z" fill="white"/>
<circle cx="475.5" cy="406.5" r="53.5" fill="#0F5BF9"/>
<path d="M476.324 423.477C474.653 423.466 473.023 423.176 471.432 422.608C469.841 422.028 468.409 421.091 467.136 419.795C465.864 418.489 464.852 416.756 464.102 414.597C463.352 412.426 462.983 409.739 462.994 406.534C462.994 403.545 463.313 400.881 463.949 398.54C464.585 396.199 465.5 394.222 466.693 392.608C467.886 390.983 469.324 389.744 471.006 388.892C472.699 388.04 474.591 387.614 476.682 387.614C478.875 387.614 480.818 388.045 482.511 388.909C484.216 389.773 485.591 390.955 486.636 392.455C487.682 393.943 488.33 395.625 488.58 397.5H482.358C482.04 396.159 481.386 395.091 480.398 394.295C479.42 393.489 478.182 393.085 476.682 393.085C474.261 393.085 472.398 394.136 471.091 396.239C469.795 398.341 469.142 401.227 469.131 404.898H469.369C469.926 403.898 470.648 403.04 471.534 402.324C472.42 401.608 473.42 401.057 474.534 400.67C475.659 400.273 476.847 400.074 478.097 400.074C480.142 400.074 481.977 400.562 483.602 401.54C485.239 402.517 486.534 403.864 487.489 405.58C488.443 407.284 488.915 409.239 488.903 411.443C488.915 413.739 488.392 415.801 487.335 417.631C486.278 419.449 484.807 420.881 482.92 421.926C481.034 422.972 478.835 423.489 476.324 423.477ZM476.29 418.364C477.528 418.364 478.636 418.062 479.614 417.46C480.591 416.858 481.364 416.045 481.932 415.023C482.5 414 482.778 412.852 482.767 411.58C482.778 410.33 482.506 409.199 481.949 408.188C481.403 407.176 480.648 406.375 479.682 405.784C478.716 405.193 477.614 404.898 476.375 404.898C475.455 404.898 474.597 405.074 473.801 405.426C473.006 405.778 472.313 406.267 471.722 406.892C471.131 407.506 470.665 408.222 470.324 409.04C469.994 409.847 469.824 410.71 469.812 411.631C469.824 412.847 470.108 413.966 470.665 414.989C471.222 416.011 471.989 416.83 472.966 417.443C473.943 418.057 475.051 418.364 476.29 418.364Z" fill="white"/>
<circle cx="359.5" cy="406.5" r="53.5" fill="#0F5BF9"/>
<path d="M360.551 423.477C358.278 423.477 356.244 423.051 354.449 422.199C352.653 421.335 351.227 420.153 350.17 418.653C349.125 417.153 348.568 415.437 348.5 413.506H354.636C354.75 414.937 355.369 416.108 356.494 417.017C357.619 417.915 358.972 418.364 360.551 418.364C361.79 418.364 362.892 418.08 363.858 417.511C364.824 416.943 365.585 416.153 366.142 415.142C366.699 414.131 366.972 412.977 366.96 411.682C366.972 410.364 366.693 409.193 366.125 408.17C365.557 407.148 364.778 406.347 363.79 405.767C362.801 405.176 361.665 404.881 360.381 404.881C359.335 404.869 358.307 405.062 357.295 405.46C356.284 405.858 355.483 406.381 354.892 407.028L349.182 406.091L351.006 388.091H371.256V393.375H356.239L355.233 402.631H355.438C356.085 401.869 357 401.239 358.182 400.739C359.364 400.227 360.659 399.972 362.068 399.972C364.182 399.972 366.068 400.472 367.727 401.472C369.386 402.46 370.693 403.824 371.648 405.562C372.602 407.301 373.08 409.29 373.08 411.528C373.08 413.835 372.545 415.892 371.477 417.699C370.42 419.494 368.949 420.909 367.062 421.943C365.188 422.966 363.017 423.477 360.551 423.477Z" fill="white"/>
<circle cx="243.5" cy="406.5" r="53.5" fill="#0F5BF9"/>
<path d="M229.487 416.523V411.494L244.3 388.091H248.493V395.25H245.936L235.964 411.051V411.324H256.641V416.523H229.487ZM246.141 423V414.989L246.209 412.739V388.091H252.175V423H246.141Z" fill="white"/>
<circle cx="475.5" cy="290.5" r="53.5" fill="#0F5BF9"/>
<path d="M475.998 307.477C473.543 307.477 471.362 307.057 469.452 306.216C467.555 305.375 466.055 304.205 464.952 302.705C463.85 301.205 463.265 299.472 463.197 297.506H469.606C469.663 298.449 469.975 299.273 470.543 299.977C471.112 300.67 471.867 301.21 472.81 301.597C473.754 301.983 474.81 302.176 475.981 302.176C477.231 302.176 478.339 301.96 479.305 301.528C480.271 301.085 481.026 300.472 481.572 299.688C482.117 298.903 482.384 298 482.373 296.977C482.384 295.92 482.112 294.989 481.555 294.182C480.998 293.375 480.191 292.744 479.134 292.29C478.089 291.835 476.827 291.608 475.35 291.608H472.265V286.733H475.35C476.566 286.733 477.629 286.523 478.538 286.102C479.458 285.682 480.18 285.091 480.702 284.33C481.225 283.557 481.481 282.665 481.469 281.653C481.481 280.665 481.259 279.807 480.805 279.08C480.362 278.341 479.731 277.767 478.913 277.358C478.106 276.949 477.157 276.744 476.066 276.744C474.998 276.744 474.009 276.937 473.1 277.324C472.191 277.71 471.458 278.261 470.901 278.977C470.344 279.682 470.049 280.523 470.015 281.5H463.93C463.975 279.545 464.538 277.83 465.617 276.352C466.708 274.864 468.163 273.705 469.981 272.875C471.799 272.034 473.839 271.614 476.1 271.614C478.43 271.614 480.452 272.051 482.168 272.926C483.896 273.79 485.231 274.955 486.174 276.42C487.117 277.886 487.589 279.506 487.589 281.278C487.6 283.244 487.021 284.892 485.85 286.222C484.691 287.551 483.168 288.42 481.282 288.83V289.102C483.737 289.443 485.617 290.352 486.924 291.83C488.242 293.295 488.896 295.119 488.884 297.301C488.884 299.256 488.327 301.006 487.214 302.551C486.112 304.085 484.589 305.29 482.646 306.165C480.714 307.04 478.498 307.477 475.998 307.477Z" fill="white"/>
<circle cx="359.5" cy="290.5" r="53.5" fill="#0F5BF9"/>
<path d="M348.196 307V302.432L360.315 290.551C361.474 289.381 362.44 288.341 363.213 287.432C363.986 286.523 364.565 285.642 364.952 284.79C365.338 283.937 365.531 283.028 365.531 282.062C365.531 280.96 365.281 280.017 364.781 279.233C364.281 278.438 363.594 277.824 362.719 277.392C361.844 276.96 360.849 276.744 359.736 276.744C358.588 276.744 357.582 276.983 356.719 277.46C355.855 277.926 355.185 278.591 354.707 279.455C354.241 280.318 354.009 281.347 354.009 282.54H347.991C347.991 280.324 348.497 278.398 349.509 276.761C350.52 275.125 351.912 273.858 353.685 272.96C355.469 272.062 357.514 271.614 359.821 271.614C362.162 271.614 364.219 272.051 365.991 272.926C367.764 273.801 369.139 275 370.116 276.523C371.105 278.045 371.599 279.784 371.599 281.739C371.599 283.045 371.349 284.33 370.849 285.591C370.349 286.852 369.469 288.25 368.207 289.784C366.957 291.318 365.202 293.176 362.94 295.358L356.923 301.477V301.716H372.128V307H348.196Z" fill="white"/>
<circle cx="243.5" cy="290.5" r="53.5" fill="#0F5BF9"/>
<path d="M248.77 272.091V307H242.446V278.244H242.241L234.077 283.46V277.665L242.753 272.091H248.77Z" fill="white"/>
<rect x="151" y="93" width="418" height="112" rx="30" fill="#7D23BE"/>
<path d="M226.871 176.273L227.371 155.045L209.235 166.136L205.871 160.227L224.598 150.091L205.871 139.955L209.235 134.045L227.371 145.136L226.871 123.909H233.689L233.189 145.136L251.325 134.045L254.689 139.955L235.962 150.091L254.689 160.227L251.325 166.136L233.189 155.045L233.689 176.273H226.871ZM311.351 176.273L311.851 155.045L293.715 166.136L290.351 160.227L309.078 150.091L290.351 139.955L293.715 134.045L311.851 145.136L311.351 123.909H318.169L317.669 145.136L335.805 134.045L339.169 139.955L320.442 150.091L339.169 160.227L335.805 166.136L317.669 155.045L318.169 176.273H311.351ZM395.831 176.273L396.331 155.045L378.195 166.136L374.831 160.227L393.558 150.091L374.831 139.955L378.195 134.045L396.331 145.136L395.831 123.909H402.649L402.149 145.136L420.285 134.045L423.649 139.955L404.922 150.091L423.649 160.227L420.285 166.136L402.149 155.045L402.649 176.273H395.831ZM480.311 176.273L480.811 155.045L462.675 166.136L459.311 160.227L478.038 150.091L459.311 139.955L462.675 134.045L480.811 145.136L480.311 123.909H487.129L486.629 145.136L504.765 134.045L508.129 139.955L489.402 150.091L508.129 160.227L504.765 166.136L486.629 155.045L487.129 176.273H480.311Z" fill="white"/>
<path d="M657.517 329H588.894C573.014 329 556 345.441 556 362.449V553.504C556 583.551 583.224 591.488 613.851 559.173C644.477 526.858 672.267 456.559 680.774 401.567C689.281 346.575 680.77 329 657.517 329Z" fill="#5FB001"/>
<path d="M596 443.339L610.974 460L638 414" stroke="white" stroke-width="9" stroke-linecap="round" stroke-linejoin="round"/>
<path d="M61.4825 329H130.106C145.986 329 163 345.441 163 362.449V553.504C163 583.551 135.776 591.488 105.149 559.173C74.5226 526.858 46.7329 456.559 38.2259 401.567C29.7188 346.575 38.2299 329 61.4825 329Z" fill="#FC6700"/>
<path d="M98 455L82 436L98 419" stroke="white" stroke-width="9" stroke-linecap="round" stroke-linejoin="round"/>
<line x1="128.589" y1="436.087" x2="86.5873" y2="436.911" stroke="white" stroke-width="9" stroke-linecap="round"/>
</g>
<defs>
<clipPath id="clip0_178_33">
<rect width="720" height="720" fill="white"/>
</clipPath>
</defs>
</svg>
