<svg width="720" height="720" viewBox="0 0 720 720" fill="none" xmlns="http://www.w3.org/2000/svg">
<g clip-path="url(#clip0_178_31)">
<circle cx="360" cy="360" r="360" fill="white"/>
<path d="M344.311 378.364H345.538L349.76 388.5H349.862L354.084 378.364H355.311V390H354.311V380.608H354.22L350.294 390H349.328L345.402 380.608H345.311V390H344.311V378.364ZM360.632 390.199C360.106 390.199 359.625 390.097 359.189 389.892C358.753 389.684 358.407 389.384 358.149 388.994C357.892 388.6 357.763 388.123 357.763 387.562C357.763 387.131 357.844 386.767 358.007 386.472C358.17 386.176 358.401 385.934 358.7 385.744C359 385.555 359.354 385.405 359.763 385.295C360.172 385.186 360.623 385.1 361.115 385.04C361.604 384.979 362.017 384.926 362.354 384.881C362.695 384.835 362.954 384.763 363.132 384.665C363.31 384.566 363.399 384.407 363.399 384.188V383.983C363.399 383.388 363.221 382.92 362.865 382.58C362.513 382.235 362.005 382.062 361.342 382.062C360.714 382.062 360.2 382.201 359.803 382.477C359.409 382.754 359.132 383.08 358.973 383.455L358.013 383.108C358.21 382.631 358.482 382.25 358.831 381.966C359.179 381.678 359.57 381.472 360.001 381.347C360.433 381.218 360.871 381.153 361.314 381.153C361.647 381.153 361.994 381.197 362.354 381.284C362.717 381.371 363.054 381.523 363.365 381.739C363.676 381.951 363.928 382.248 364.121 382.631C364.314 383.009 364.411 383.491 364.411 384.074V390H363.399V388.619H363.337C363.215 388.877 363.036 389.127 362.797 389.369C362.558 389.612 362.259 389.811 361.899 389.966C361.539 390.121 361.117 390.199 360.632 390.199ZM360.768 389.273C361.306 389.273 361.772 389.153 362.166 388.915C362.56 388.676 362.863 388.36 363.075 387.966C363.291 387.568 363.399 387.131 363.399 386.653V385.392C363.323 385.464 363.196 385.528 363.018 385.585C362.844 385.642 362.642 385.693 362.411 385.739C362.183 385.78 361.956 385.816 361.729 385.847C361.501 385.877 361.297 385.903 361.115 385.926C360.623 385.987 360.202 386.081 359.854 386.21C359.505 386.339 359.238 386.517 359.053 386.744C358.867 386.968 358.774 387.256 358.774 387.608C358.774 388.138 358.964 388.549 359.342 388.841C359.721 389.129 360.196 389.273 360.768 389.273ZM370.538 381.273V382.153H366.374V381.273H370.538ZM367.675 379.182H368.692V387.722C368.692 388.085 368.754 388.371 368.879 388.58C369.004 388.784 369.167 388.93 369.368 389.017C369.569 389.1 369.783 389.142 370.01 389.142C370.143 389.142 370.256 389.134 370.351 389.119C370.446 389.1 370.529 389.081 370.601 389.062L370.817 389.977C370.718 390.015 370.597 390.049 370.453 390.08C370.309 390.114 370.131 390.131 369.919 390.131C369.548 390.131 369.19 390.049 368.845 389.886C368.504 389.723 368.224 389.481 368.004 389.159C367.785 388.837 367.675 388.438 367.675 387.96V379.182ZM376.273 381.273V382.153H372.108V381.273H376.273ZM373.409 379.182H374.426V387.722C374.426 388.085 374.489 388.371 374.614 388.58C374.739 388.784 374.902 388.93 375.102 389.017C375.303 389.1 375.517 389.142 375.744 389.142C375.877 389.142 375.991 389.134 376.085 389.119C376.18 389.1 376.263 389.081 376.335 389.062L376.551 389.977C376.453 390.015 376.331 390.049 376.188 390.08C376.044 390.114 375.866 390.131 375.653 390.131C375.282 390.131 374.924 390.049 374.58 389.886C374.239 389.723 373.958 389.481 373.739 389.159C373.519 388.837 373.409 388.438 373.409 387.96V379.182ZM344.945 412V394.545H346.01V411.011H354.533V412H344.945ZM361.547 412.281C360.791 412.281 360.098 412.131 359.467 411.83C358.842 411.528 358.339 411.088 357.959 410.509C357.584 409.929 357.396 409.224 357.396 408.395C357.396 407.849 357.493 407.369 357.686 406.955C357.879 406.54 358.178 406.182 358.581 405.881C358.984 405.58 359.501 405.332 360.132 405.139C360.763 404.94 361.516 404.787 362.391 404.679C363.055 404.599 363.649 404.523 364.172 404.449C364.695 404.369 365.104 404.247 365.399 404.082C365.7 403.918 365.851 403.668 365.851 403.332V402.787C365.851 401.832 365.55 401.074 364.947 400.511C364.345 399.949 363.516 399.668 362.459 399.668C361.521 399.668 360.732 399.875 360.089 400.29C359.453 400.699 359.007 401.227 358.751 401.875L357.771 401.509C358.021 400.884 358.382 400.364 358.854 399.949C359.331 399.534 359.876 399.224 360.49 399.02C361.109 398.815 361.757 398.713 362.433 398.713C363.018 398.713 363.575 398.795 364.104 398.96C364.638 399.125 365.112 399.375 365.527 399.71C365.947 400.045 366.28 400.474 366.524 400.997C366.768 401.514 366.891 402.134 366.891 402.855V412H365.851V409.639H365.774C365.547 410.128 365.234 410.574 364.837 410.977C364.445 411.375 363.97 411.693 363.413 411.932C362.862 412.165 362.24 412.281 361.547 412.281ZM361.649 411.318C362.467 411.318 363.192 411.119 363.822 410.722C364.459 410.318 364.956 409.767 365.314 409.068C365.672 408.369 365.851 407.577 365.851 406.69V404.764C365.72 404.878 365.53 404.98 365.28 405.071C365.036 405.156 364.757 405.233 364.445 405.301C364.138 405.364 363.814 405.42 363.473 405.472C363.138 405.517 362.811 405.56 362.493 405.599C361.538 405.713 360.76 405.889 360.158 406.128C359.561 406.361 359.124 406.668 358.845 407.048C358.572 407.429 358.436 407.889 358.436 408.429C358.436 409.321 358.743 410.026 359.357 410.543C359.97 411.06 360.734 411.318 361.649 411.318ZM375.878 398.909V399.838H370.159V398.909H375.878ZM372.094 395.773H373.125V408.906C373.125 409.44 373.227 409.878 373.432 410.219C373.642 410.554 373.915 410.804 374.25 410.969C374.591 411.128 374.955 411.207 375.341 411.207C375.528 411.207 375.69 411.193 375.827 411.165C375.969 411.136 376.102 411.099 376.227 411.054L376.483 412C376.324 412.057 376.148 412.105 375.955 412.145C375.761 412.19 375.534 412.213 375.273 412.213C374.727 412.213 374.21 412.091 373.722 411.847C373.239 411.602 372.847 411.247 372.545 410.781C372.244 410.315 372.094 409.753 372.094 409.094V395.773ZM344.034 417H345.19L347.909 423.641H348.002L350.721 417H351.877V425H350.971V418.922H350.893L348.393 425H347.518L345.018 418.922H344.94V425H344.034V417ZM355.46 425.141C355.08 425.141 354.735 425.069 354.425 424.926C354.115 424.78 353.869 424.57 353.687 424.297C353.505 424.021 353.414 423.687 353.414 423.297C353.414 422.953 353.481 422.674 353.617 422.461C353.752 422.245 353.933 422.076 354.16 421.953C354.386 421.831 354.636 421.74 354.91 421.68C355.186 421.617 355.463 421.568 355.742 421.531C356.106 421.484 356.402 421.449 356.628 421.426C356.858 421.4 357.024 421.357 357.128 421.297C357.235 421.237 357.289 421.133 357.289 420.984V420.953C357.289 420.568 357.183 420.268 356.972 420.055C356.764 419.841 356.447 419.734 356.023 419.734C355.583 419.734 355.238 419.831 354.988 420.023C354.738 420.216 354.562 420.422 354.46 420.641L353.585 420.328C353.742 419.964 353.95 419.68 354.21 419.477C354.473 419.271 354.76 419.128 355.07 419.047C355.382 418.964 355.69 418.922 355.992 418.922C356.184 418.922 356.406 418.945 356.656 418.992C356.908 419.036 357.152 419.129 357.386 419.27C357.623 419.41 357.82 419.622 357.976 419.906C358.132 420.19 358.21 420.57 358.21 421.047V425H357.289V424.187H357.242C357.179 424.318 357.075 424.457 356.929 424.605C356.783 424.754 356.589 424.88 356.347 424.984C356.105 425.089 355.809 425.141 355.46 425.141ZM355.601 424.312C355.966 424.312 356.273 424.241 356.523 424.098C356.776 423.954 356.966 423.77 357.093 423.543C357.223 423.316 357.289 423.078 357.289 422.828V421.984C357.25 422.031 357.164 422.074 357.031 422.113C356.901 422.15 356.75 422.182 356.578 422.211C356.408 422.237 356.243 422.26 356.082 422.281C355.923 422.299 355.794 422.315 355.695 422.328C355.455 422.359 355.231 422.41 355.023 422.48C354.817 422.548 354.651 422.651 354.523 422.789C354.398 422.924 354.335 423.109 354.335 423.344C354.335 423.664 354.454 423.906 354.691 424.07C354.931 424.232 355.234 424.312 355.601 424.312ZM360.752 422.812L360.737 421.672H360.924L363.549 419H364.69L361.893 421.828H361.815L360.752 422.812ZM359.893 425V417H360.815V425H359.893ZM363.706 425L361.362 422.031L362.018 421.391L364.877 425H363.706ZM368.145 425.125C367.567 425.125 367.068 424.997 366.649 424.742C366.232 424.484 365.911 424.125 365.684 423.664C365.46 423.201 365.348 422.661 365.348 422.047C365.348 421.432 365.46 420.891 365.684 420.422C365.911 419.951 366.226 419.583 366.629 419.32C367.036 419.055 367.51 418.922 368.051 418.922C368.364 418.922 368.672 418.974 368.977 419.078C369.282 419.182 369.559 419.352 369.809 419.586C370.059 419.818 370.258 420.125 370.407 420.508C370.555 420.891 370.629 421.362 370.629 421.922V422.312H366.004V421.516H369.692C369.692 421.177 369.624 420.875 369.489 420.609C369.356 420.344 369.166 420.134 368.918 419.98C368.674 419.827 368.385 419.75 368.051 419.75C367.684 419.75 367.366 419.841 367.098 420.023C366.833 420.203 366.628 420.437 366.485 420.727C366.342 421.016 366.27 421.326 366.27 421.656V422.188C366.27 422.641 366.348 423.025 366.504 423.34C366.663 423.652 366.883 423.891 367.165 424.055C367.446 424.216 367.773 424.297 368.145 424.297C368.387 424.297 368.606 424.263 368.801 424.195C368.999 424.125 369.17 424.021 369.313 423.883C369.456 423.742 369.567 423.568 369.645 423.359L370.536 423.609C370.442 423.911 370.284 424.177 370.063 424.406C369.842 424.633 369.568 424.81 369.243 424.937C368.917 425.063 368.551 425.125 368.145 425.125ZM376.282 420.344L375.454 420.578C375.402 420.44 375.325 420.306 375.223 420.176C375.124 420.043 374.989 419.934 374.817 419.848C374.645 419.762 374.425 419.719 374.157 419.719C373.79 419.719 373.484 419.803 373.239 419.973C372.997 420.139 372.875 420.352 372.875 420.609C372.875 420.839 372.959 421.02 373.125 421.152C373.292 421.285 373.553 421.396 373.907 421.484L374.797 421.703C375.334 421.833 375.734 422.033 375.997 422.301C376.26 422.566 376.391 422.909 376.391 423.328C376.391 423.672 376.292 423.979 376.094 424.25C375.899 424.521 375.625 424.734 375.274 424.891C374.922 425.047 374.514 425.125 374.047 425.125C373.435 425.125 372.929 424.992 372.528 424.727C372.127 424.461 371.873 424.073 371.766 423.562L372.641 423.344C372.724 423.667 372.882 423.909 373.114 424.07C373.348 424.232 373.654 424.312 374.032 424.312C374.461 424.312 374.803 424.221 375.055 424.039C375.31 423.854 375.438 423.633 375.438 423.375C375.438 423.167 375.365 422.992 375.219 422.852C375.073 422.708 374.849 422.602 374.547 422.531L373.547 422.297C372.998 422.167 372.594 421.965 372.336 421.691C372.081 421.415 371.954 421.07 371.954 420.656C371.954 420.318 372.049 420.018 372.239 419.758C372.431 419.497 372.693 419.293 373.024 419.145C373.357 418.996 373.735 418.922 374.157 418.922C374.75 418.922 375.217 419.052 375.555 419.312C375.896 419.573 376.139 419.917 376.282 420.344Z" fill="black"/>
<line x1="342.5" y1="291.995" x2="343.328" y2="368.995" stroke="black"/>
<line x1="373.962" y1="317.642" x2="376.446" y2="368.976" stroke="black"/>
<line x1="342.828" y1="368.5" x2="375.946" y2="368.5" stroke="black"/>
<line x1="353.953" y1="368.82" x2="373.824" y2="317.486" stroke="black"/>
<line x1="363.873" y1="369.135" x2="342.346" y2="292.135" stroke="black"/>
</g>
<defs>
<clipPath id="clip0_178_31">
<rect width="720" height="720" fill="white"/>
</clipPath>
</defs>
</svg>
