<svg width="720" height="720" viewBox="0 0 720 720" fill="none" xmlns="http://www.w3.org/2000/svg">
<g clip-path="url(#clip0_183_276)">
<circle cx="360" cy="360" r="353" fill="black" stroke="#7D23BE" stroke-width="14"/>
<circle cx="647.094" cy="362.133" r="29.1331" fill="#0F5BF9"/>
<path d="M638.093 375.069V348.887H647.911C649.922 348.887 651.61 349.262 652.973 350.012C654.345 350.762 655.381 351.793 656.08 353.106C656.787 354.41 657.141 355.893 657.141 357.555C657.141 359.234 656.787 360.725 656.08 362.029C655.372 363.333 654.328 364.36 652.948 365.11C651.567 365.852 649.867 366.222 647.847 366.222H641.34V362.323H647.208C648.384 362.323 649.347 362.119 650.097 361.709C650.847 361.3 651.401 360.738 651.759 360.022C652.125 359.306 652.308 358.484 652.308 357.555C652.308 356.626 652.125 355.807 651.759 355.1C651.401 354.393 650.843 353.843 650.084 353.451C649.334 353.05 648.367 352.85 647.182 352.85H642.835V375.069H638.093Z" fill="white"/>
<circle cx="582.828" cy="362.867" r="29.1331" fill="#0F5BF9"/>
<path d="M595.138 362.712C595.138 365.533 594.61 367.95 593.553 369.961C592.505 371.964 591.073 373.498 589.258 374.563C587.451 375.629 585.401 376.161 583.109 376.161C580.816 376.161 578.762 375.629 576.947 374.563C575.14 373.489 573.708 371.951 572.651 369.948C571.603 367.937 571.079 365.525 571.079 362.712C571.079 359.891 571.603 357.479 572.651 355.477C573.708 353.465 575.14 351.927 576.947 350.861C578.762 349.796 580.816 349.263 583.109 349.263C585.401 349.263 587.451 349.796 589.258 350.861C591.073 351.927 592.505 353.465 593.553 355.477C594.61 357.479 595.138 359.891 595.138 362.712ZM590.37 362.712C590.37 360.727 590.059 359.052 589.437 357.688C588.823 356.316 587.971 355.28 586.88 354.582C585.789 353.874 584.532 353.521 583.109 353.521C581.685 353.521 580.428 353.874 579.337 354.582C578.246 355.28 577.39 356.316 576.768 357.688C576.154 359.052 575.847 360.727 575.847 362.712C575.847 364.698 576.154 366.377 576.768 367.749C577.39 369.113 578.246 370.148 579.337 370.856C580.428 371.555 581.685 371.904 583.109 371.904C584.532 371.904 585.789 371.555 586.88 370.856C587.971 370.148 588.823 369.113 589.437 367.749C590.059 366.377 590.37 364.698 590.37 362.712Z" fill="white"/>
<circle cx="519.55" cy="361.133" r="29.1331" fill="#0F5BF9"/>
<path d="M522.48 347.888V374.069H517.737V347.888H522.48Z" fill="white"/>
<circle cx="455.513" cy="362.707" r="29.1331" fill="#0F5BF9"/>
<path d="M461.398 349.461H466.141V366.566C466.141 368.441 465.698 370.091 464.811 371.514C463.933 372.937 462.698 374.049 461.104 374.85C459.51 375.643 457.648 376.039 455.517 376.039C453.378 376.039 451.512 375.643 449.918 374.85C448.324 374.049 447.088 372.937 446.21 371.514C445.333 370.091 444.894 368.441 444.894 366.566V349.461H449.637V366.17C449.637 367.261 449.875 368.233 450.353 369.085C450.838 369.937 451.52 370.606 452.398 371.092C453.276 371.569 454.316 371.808 455.517 371.808C456.719 371.808 457.759 371.569 458.637 371.092C459.523 370.606 460.205 369.937 460.682 369.085C461.159 368.233 461.398 367.261 461.398 366.17V349.461Z" fill="white"/>
<circle cx="391.9" cy="362.707" r="29.1331" fill="#0F5BF9"/>
<path d="M380.292 349.461H385.648L392.053 361.044H392.309L398.713 349.461H404.07L394.546 365.876V375.643H389.816V365.876L380.292 349.461Z" fill="white"/>
<circle cx="327.98" cy="362.545" r="29.1331" fill="#0F5BF9"/>
<path d="M318.073 353.275V349.299H338.963V353.275H330.87V375.481H326.166V353.275H318.073Z" fill="white"/>
<circle cx="264.268" cy="362.545" r="29.1331" fill="#0F5BF9"/>
<path d="M254.871 375.481V349.299H264.689C266.701 349.299 268.388 349.649 269.752 350.347C271.124 351.046 272.16 352.026 272.858 353.288C273.566 354.541 273.92 356.002 273.92 357.673C273.92 359.352 273.562 360.809 272.846 362.045C272.138 363.272 271.094 364.222 269.714 364.896C268.333 365.561 266.637 365.893 264.625 365.893H257.633V361.955H263.986C265.162 361.955 266.125 361.793 266.875 361.47C267.625 361.137 268.179 360.656 268.537 360.025C268.904 359.386 269.087 358.602 269.087 357.673C269.087 356.744 268.904 355.951 268.537 355.295C268.171 354.63 267.613 354.127 266.863 353.786C266.113 353.437 265.145 353.262 263.961 353.262H259.614V375.481H254.871ZM268.397 363.617L274.878 375.481H269.586L263.219 363.617H268.397Z" fill="white"/>
<circle cx="200.556" cy="362.545" r="29.1331" fill="#0F5BF9"/>
<path d="M192.478 375.481V349.299H209.506V353.275H197.22V360.383H208.624V364.359H197.22V371.505H209.608V375.481H192.478Z" fill="white"/>
<circle cx="136.845" cy="362.545" r="29.1331" fill="#0F5BF9"/>
<path d="M127.086 375.481L119.697 349.299H124.798L129.515 368.539H129.758L134.795 349.299H139.436L144.485 368.552H144.716L149.433 349.299H154.534L147.145 375.481H142.466L137.224 357.11H137.02L131.765 375.481H127.086Z" fill="white"/>
<circle cx="73.1331" cy="362" r="29.1331" fill="#0F5BF9"/>
<path d="M71.2404 366.141H75.5359L78.0799 369.439L79.8953 371.587L84.2546 377.186H79.6524L76.6865 373.428L75.4208 371.638L71.2404 366.141ZM84.8811 361.845C84.8811 364.666 84.3527 367.082 83.2958 369.094C82.2475 371.097 80.8157 372.631 79.0004 373.696C77.1936 374.761 75.1439 375.294 72.8512 375.294C70.5586 375.294 68.5046 374.761 66.6893 373.696C64.8825 372.622 63.4507 371.084 62.3939 369.081C61.3456 367.07 60.8214 364.658 60.8214 361.845C60.8214 359.024 61.3456 356.612 62.3939 354.609C63.4507 352.598 64.8825 351.06 66.6893 349.994C68.5046 348.929 70.5586 348.396 72.8512 348.396C75.1439 348.396 77.1936 348.929 79.0004 349.994C80.8157 351.06 82.2475 352.598 83.2958 354.609C84.3527 356.612 84.8811 359.024 84.8811 361.845ZM80.1126 361.845C80.1126 359.859 79.8015 358.185 79.1794 356.821C78.5657 355.449 77.7135 354.413 76.6225 353.714C75.5316 353.007 74.2745 352.653 72.8512 352.653C71.4279 352.653 70.1708 353.007 69.0799 353.714C67.989 354.413 67.1325 355.449 66.5103 356.821C65.8967 358.185 65.5899 359.859 65.5899 361.845C65.5899 363.831 65.8967 365.51 66.5103 366.882C67.1325 368.246 67.989 369.281 69.0799 369.989C70.1708 370.687 71.4279 371.037 72.8512 371.037C74.2745 371.037 75.5316 370.687 76.6225 369.989C77.7135 369.281 78.5657 368.246 79.1794 366.882C79.8015 365.51 80.1126 363.831 80.1126 361.845Z" fill="white"/>
<circle cx="611.828" cy="430.867" r="29.1331" fill="#0F5BF9"/>
<path d="M604.488 443.803V417.621H609.231V439.827H620.762V443.803H604.488Z" fill="white"/>
<circle cx="548.55" cy="429.133" r="29.1331" fill="#0F5BF9"/>
<path d="M539.495 442.069V415.888H544.238V427.917H544.558L554.772 415.888H560.563L550.438 427.636L560.653 442.069H554.951L547.14 430.845L544.238 434.271V442.069H539.495Z" fill="white"/>
<circle cx="484.513" cy="430.707" r="29.1331" fill="#0F5BF9"/>
<path d="M487.335 417.461H492.039V435.87C492.031 437.558 491.673 439.011 490.965 440.23C490.258 441.44 489.269 442.373 487.999 443.029C486.738 443.677 485.268 444.001 483.589 444.001C482.055 444.001 480.674 443.728 479.447 443.183C478.228 442.629 477.261 441.811 476.545 440.728C475.829 439.646 475.471 438.299 475.471 436.689H480.188C480.197 437.396 480.35 438.005 480.649 438.517C480.955 439.028 481.377 439.42 481.914 439.693C482.451 439.966 483.069 440.102 483.768 440.102C484.526 440.102 485.17 439.944 485.698 439.629C486.227 439.305 486.627 438.828 486.9 438.197C487.181 437.566 487.326 436.791 487.335 435.87V417.461Z" fill="white"/>
<circle cx="420.9" cy="430.707" r="29.1331" fill="#0F5BF9"/>
<path d="M410.361 443.643V417.461H415.103V428.545H427.236V417.461H431.991V443.643H427.236V432.521H415.103V443.643H410.361Z" fill="white"/>
<circle cx="356.98" cy="430.545" r="29.1331" fill="#0F5BF9"/>
<path d="M364.059 425.66C363.846 424.97 363.552 424.352 363.177 423.806C362.81 423.252 362.367 422.779 361.847 422.387C361.336 421.995 360.748 421.701 360.083 421.505C359.418 421.301 358.694 421.198 357.909 421.198C356.503 421.198 355.25 421.552 354.151 422.259C353.052 422.967 352.186 424.007 351.556 425.379C350.934 426.742 350.623 428.404 350.623 430.364C350.623 432.342 350.934 434.016 351.556 435.389C352.178 436.761 353.043 437.805 354.151 438.521C355.259 439.228 356.546 439.582 358.012 439.582C359.341 439.582 360.492 439.326 361.463 438.815C362.444 438.303 363.198 437.579 363.726 436.641C364.255 435.695 364.519 434.587 364.519 433.318L365.593 433.484H358.485V429.776H369.108V432.921C369.108 435.163 368.631 437.102 367.677 438.738C366.722 440.374 365.409 441.636 363.739 442.522C362.069 443.4 360.151 443.839 357.986 443.839C355.574 443.839 353.456 443.298 351.632 442.215C349.817 441.124 348.398 439.578 347.375 437.575C346.361 435.563 345.854 433.177 345.854 430.416C345.854 428.302 346.152 426.414 346.749 424.752C347.354 423.09 348.198 421.68 349.28 420.521C350.363 419.353 351.632 418.467 353.09 417.862C354.547 417.248 356.132 416.941 357.846 416.941C359.294 416.941 360.645 417.154 361.898 417.58C363.151 417.998 364.263 418.595 365.235 419.37C366.215 420.146 367.02 421.066 367.651 422.132C368.282 423.197 368.695 424.373 368.891 425.66H364.059Z" fill="white"/>
<circle cx="293.268" cy="430.545" r="29.1331" fill="#0F5BF9"/>
<path d="M285.031 443.481V417.299H301.804V421.275H289.774V428.383H300.654V432.359H289.774V443.481H285.031Z" fill="white"/>
<circle cx="229.556" cy="430.545" r="29.1331" fill="#0F5BF9"/>
<path d="M228.24 443.481H219.368V417.299H228.419C231.019 417.299 233.252 417.823 235.118 418.872C236.993 419.911 238.433 421.407 239.439 423.359C240.445 425.311 240.948 427.646 240.948 430.364C240.948 433.092 240.441 435.436 239.426 437.396C238.421 439.356 236.968 440.86 235.067 441.909C233.175 442.957 230.899 443.481 228.24 443.481ZM224.111 439.377H228.01C229.834 439.377 231.355 439.045 232.574 438.38C233.793 437.707 234.709 436.705 235.323 435.376C235.936 434.038 236.243 432.367 236.243 430.364C236.243 428.362 235.936 426.7 235.323 425.379C234.709 424.049 233.801 423.056 232.6 422.4C231.406 421.735 229.924 421.403 228.151 421.403H224.111V439.377Z" fill="white"/>
<circle cx="165.845" cy="430.545" r="29.1331" fill="#0F5BF9"/>
<path d="M171.239 424.497C171.119 423.38 170.617 422.511 169.73 421.889C168.852 421.266 167.71 420.955 166.304 420.955C165.315 420.955 164.467 421.105 163.76 421.403C163.053 421.701 162.511 422.106 162.136 422.617C161.761 423.129 161.57 423.712 161.561 424.369C161.561 424.914 161.685 425.387 161.932 425.788C162.188 426.188 162.533 426.529 162.967 426.811C163.402 427.083 163.884 427.313 164.412 427.501C164.94 427.688 165.473 427.846 166.01 427.974L168.465 428.587C169.453 428.818 170.403 429.129 171.315 429.521C172.236 429.913 173.058 430.407 173.783 431.004C174.516 431.6 175.095 432.32 175.521 433.164C175.947 434.008 176.161 434.997 176.161 436.13C176.161 437.664 175.769 439.015 174.984 440.183C174.2 441.342 173.067 442.249 171.584 442.906C170.109 443.553 168.324 443.877 166.227 443.877C164.19 443.877 162.422 443.562 160.922 442.931C159.43 442.301 158.263 441.38 157.419 440.17C156.584 438.96 156.132 437.485 156.064 435.747H160.73C160.798 436.659 161.08 437.417 161.574 438.022C162.068 438.627 162.712 439.079 163.504 439.377C164.305 439.676 165.2 439.825 166.189 439.825C167.22 439.825 168.124 439.671 168.899 439.364C169.683 439.049 170.297 438.614 170.74 438.061C171.183 437.498 171.409 436.842 171.418 436.092C171.409 435.41 171.209 434.847 170.817 434.404C170.425 433.953 169.875 433.578 169.168 433.279C168.469 432.972 167.651 432.7 166.713 432.461L163.734 431.694C161.578 431.14 159.874 430.301 158.621 429.176C157.376 428.042 156.754 426.538 156.754 424.663C156.754 423.12 157.172 421.769 158.007 420.61C158.851 419.451 159.997 418.552 161.446 417.913C162.895 417.265 164.536 416.941 166.368 416.941C168.226 416.941 169.854 417.265 171.251 417.913C172.658 418.552 173.761 419.443 174.563 420.585C175.364 421.718 175.777 423.022 175.803 424.497H171.239Z" fill="white"/>
<circle cx="102.133" cy="430" r="29.1331" fill="#0F5BF9"/>
<path d="M94.78 442.936H89.7175L98.9349 416.754H104.79L114.02 442.936H108.958L101.965 422.124H101.76L94.78 442.936ZM94.9462 432.67H108.753V436.48H94.9462V432.67Z" fill="white"/>
<circle cx="519.513" cy="497.84" r="29.1331" fill="#0F5BF9"/>
<path d="M505.782 484.595H511.586L519.359 503.566H519.666L527.439 484.595H533.243V510.776H528.691V492.789H528.449L521.213 510.7H517.812L510.576 492.751H510.334V510.776H505.782V484.595Z" fill="white"/>
<circle cx="455.9" cy="497.84" r="29.1331" fill="#0F5BF9"/>
<path d="M466.929 484.595V510.776H462.71L450.374 492.943H450.156V510.776H445.413V484.595H449.658L461.981 502.441H462.212V484.595H466.929Z" fill="white"/>
<circle cx="391.98" cy="497.678" r="29.1331" fill="#0F5BF9"/>
<path d="M383.277 510.614V484.432H393.299C395.191 484.432 396.764 484.731 398.017 485.327C399.278 485.915 400.22 486.721 400.842 487.744C401.473 488.766 401.788 489.925 401.788 491.221C401.788 492.286 401.583 493.198 401.174 493.957C400.765 494.707 400.216 495.316 399.525 495.785C398.835 496.253 398.064 496.59 397.211 496.795V497.05C398.14 497.101 399.031 497.387 399.883 497.907C400.744 498.418 401.447 499.143 401.993 500.08C402.538 501.018 402.811 502.151 402.811 503.481C402.811 504.836 402.483 506.055 401.826 507.137C401.17 508.211 400.181 509.059 398.86 509.681C397.539 510.303 395.877 510.614 393.875 510.614H383.277ZM388.02 506.651H393.12C394.842 506.651 396.082 506.323 396.841 505.667C397.608 505.002 397.991 504.15 397.991 503.11C397.991 502.334 397.799 501.636 397.416 501.013C397.032 500.383 396.487 499.888 395.779 499.53C395.072 499.164 394.228 498.981 393.248 498.981H388.02V506.651ZM388.02 495.567H392.711C393.529 495.567 394.267 495.418 394.923 495.12C395.579 494.813 396.095 494.383 396.47 493.829C396.853 493.266 397.045 492.601 397.045 491.834C397.045 490.82 396.687 489.985 395.971 489.329C395.264 488.672 394.211 488.344 392.814 488.344H388.02V495.567Z" fill="white"/>
<circle cx="328.268" cy="497.678" r="29.1331" fill="#0F5BF9"/>
<path d="M321.056 484.432L327.87 505.04H328.138L334.939 484.432H340.155L330.925 510.614H325.07L315.853 484.432H321.056Z" fill="white"/>
<circle cx="264.556" cy="497.678" r="29.1331" fill="#0F5BF9"/>
<path d="M276.445 493.266H271.663C271.527 492.482 271.276 491.788 270.909 491.182C270.543 490.569 270.087 490.049 269.541 489.623C268.996 489.197 268.374 488.877 267.675 488.664C266.984 488.442 266.239 488.332 265.438 488.332C264.014 488.332 262.753 488.69 261.653 489.405C260.554 490.113 259.693 491.153 259.071 492.525C258.449 493.888 258.138 495.555 258.138 497.523C258.138 499.526 258.449 501.214 259.071 502.586C259.702 503.949 260.563 504.981 261.653 505.68C262.753 506.37 264.01 506.715 265.425 506.715C266.209 506.715 266.942 506.613 267.624 506.408C268.314 506.195 268.932 505.884 269.477 505.475C270.031 505.066 270.496 504.563 270.871 503.967C271.254 503.37 271.519 502.688 271.663 501.921L276.445 501.947C276.266 503.191 275.878 504.359 275.281 505.449C274.693 506.54 273.922 507.503 272.967 508.339C272.013 509.165 270.896 509.813 269.618 510.282C268.34 510.742 266.921 510.972 265.361 510.972C263.06 510.972 261.006 510.44 259.199 509.374C257.392 508.309 255.969 506.771 254.929 504.759C253.889 502.748 253.369 500.336 253.369 497.523C253.369 494.702 253.894 492.29 254.942 490.288C255.99 488.276 257.418 486.738 259.224 485.672C261.031 484.607 263.077 484.074 265.361 484.074C266.818 484.074 268.173 484.279 269.426 484.688C270.679 485.097 271.796 485.698 272.776 486.491C273.756 487.275 274.561 488.238 275.192 489.38C275.831 490.513 276.249 491.809 276.445 493.266Z" fill="white"/>
<circle cx="200.845" cy="497.678" r="29.1331" fill="#0F5BF9"/>
<path d="M195.235 484.432L201 494.021H201.205L206.996 484.432H212.404L204.337 497.523L212.532 510.614H207.034L201.205 501.09H201L195.171 510.614H189.699L197.971 497.523L189.802 484.432H195.235Z" fill="white"/>
<circle cx="137.133" cy="497.133" r="29.1331" fill="#0F5BF9"/>
<path d="M127.215 510.069V507.116L140.639 487.863H127.139V483.888H146.519V486.841L133.109 506.093H146.596V510.069H127.215Z" fill="white"/>
<rect x="78" y="215" width="563" height="78" rx="30" fill="#7D23BE"/>
<path d="M251.274 194L241.422 159.091H248.223L254.513 184.744H254.837L261.553 159.091H267.74L274.473 184.761H274.78L281.07 159.091H287.871L278.018 194H271.78L264.791 169.506H264.518L257.513 194H251.274ZM291.983 194V167.818H298.153V194H291.983ZM295.085 164.102C294.108 164.102 293.267 163.778 292.562 163.131C291.858 162.472 291.506 161.682 291.506 160.761C291.506 159.83 291.858 159.04 292.562 158.392C293.267 157.733 294.108 157.403 295.085 157.403C296.074 157.403 296.915 157.733 297.608 158.392C298.313 159.04 298.665 159.83 298.665 160.761C298.665 161.682 298.313 162.472 297.608 163.131C296.915 163.778 296.074 164.102 295.085 164.102ZM317.76 167.818V172.591H302.283V167.818H317.76ZM306.152 194V165.347C306.152 163.585 306.516 162.119 307.243 160.949C307.982 159.778 308.97 158.903 310.209 158.324C311.447 157.744 312.822 157.455 314.334 157.455C315.402 157.455 316.351 157.54 317.18 157.71C318.01 157.881 318.624 158.034 319.021 158.17L317.794 162.943C317.533 162.864 317.203 162.784 316.805 162.705C316.408 162.614 315.964 162.568 315.476 162.568C314.328 162.568 313.516 162.847 313.038 163.403C312.572 163.949 312.339 164.733 312.339 165.756V194H306.152ZM322.592 194V167.818H328.763V194H322.592ZM325.695 164.102C324.717 164.102 323.876 163.778 323.172 163.131C322.467 162.472 322.115 161.682 322.115 160.761C322.115 159.83 322.467 159.04 323.172 158.392C323.876 157.733 324.717 157.403 325.695 157.403C326.683 157.403 327.524 157.733 328.217 158.392C328.922 159.04 329.274 159.83 329.274 160.761C329.274 161.682 328.922 162.472 328.217 163.131C327.524 163.778 326.683 164.102 325.695 164.102ZM375.974 159.091V194H370.349L353.901 170.222H353.611V194H347.287V159.091H352.946L369.378 182.886H369.685V159.091H375.974ZM390.126 194.528C388.467 194.528 386.973 194.233 385.643 193.642C384.325 193.04 383.28 192.153 382.507 190.983C381.746 189.812 381.365 188.369 381.365 186.653C381.365 185.176 381.638 183.955 382.183 182.989C382.729 182.023 383.473 181.25 384.416 180.67C385.359 180.091 386.422 179.653 387.604 179.358C388.797 179.051 390.03 178.83 391.303 178.693C392.837 178.534 394.081 178.392 395.036 178.267C395.99 178.131 396.683 177.926 397.115 177.653C397.558 177.369 397.78 176.932 397.78 176.341V176.239C397.78 174.955 397.399 173.96 396.638 173.256C395.876 172.551 394.78 172.199 393.348 172.199C391.837 172.199 390.638 172.528 389.751 173.188C388.876 173.847 388.286 174.625 387.979 175.523L382.217 174.705C382.672 173.114 383.422 171.784 384.467 170.716C385.513 169.636 386.791 168.83 388.303 168.295C389.814 167.75 391.484 167.477 393.314 167.477C394.575 167.477 395.831 167.625 397.081 167.92C398.331 168.216 399.473 168.705 400.507 169.386C401.541 170.057 402.371 170.972 402.996 172.131C403.632 173.29 403.95 174.739 403.95 176.477V194H398.018V190.403H397.814C397.439 191.131 396.911 191.812 396.229 192.449C395.558 193.074 394.712 193.58 393.689 193.966C392.678 194.341 391.49 194.528 390.126 194.528ZM391.729 189.994C392.967 189.994 394.041 189.75 394.95 189.261C395.859 188.761 396.558 188.102 397.047 187.284C397.547 186.466 397.797 185.574 397.797 184.608V181.523C397.604 181.682 397.274 181.83 396.808 181.966C396.354 182.102 395.842 182.222 395.274 182.324C394.706 182.426 394.143 182.517 393.587 182.597C393.03 182.676 392.547 182.744 392.138 182.801C391.217 182.926 390.393 183.131 389.666 183.415C388.939 183.699 388.365 184.097 387.945 184.608C387.524 185.108 387.314 185.756 387.314 186.551C387.314 187.688 387.729 188.545 388.558 189.125C389.388 189.705 390.445 189.994 391.729 189.994ZM410.155 194V167.818H416.053V172.267H416.359C416.905 170.767 417.808 169.597 419.07 168.756C420.331 167.903 421.837 167.477 423.587 167.477C425.359 167.477 426.854 167.909 428.07 168.773C429.297 169.625 430.161 170.79 430.661 172.267H430.933C431.513 170.812 432.49 169.653 433.865 168.79C435.251 167.915 436.893 167.477 438.791 167.477C441.2 167.477 443.166 168.239 444.689 169.761C446.212 171.284 446.973 173.506 446.973 176.426V194H440.786V177.381C440.786 175.756 440.354 174.568 439.49 173.818C438.626 173.057 437.57 172.676 436.32 172.676C434.831 172.676 433.666 173.142 432.825 174.074C431.996 174.994 431.581 176.193 431.581 177.67V194H425.53V177.125C425.53 175.773 425.121 174.693 424.303 173.886C423.496 173.08 422.439 172.676 421.132 172.676C420.246 172.676 419.439 172.903 418.712 173.358C417.984 173.801 417.405 174.432 416.973 175.25C416.541 176.057 416.325 177 416.325 178.08V194H410.155ZM464.824 194.511C462.199 194.511 459.932 193.966 458.023 192.875C456.125 191.773 454.665 190.216 453.642 188.205C452.619 186.182 452.108 183.801 452.108 181.062C452.108 178.369 452.619 176.006 453.642 173.972C454.676 171.926 456.119 170.335 457.972 169.199C459.824 168.051 462 167.477 464.5 167.477C466.114 167.477 467.636 167.739 469.068 168.261C470.511 168.773 471.784 169.568 472.886 170.648C474 171.727 474.875 173.102 475.511 174.773C476.148 176.432 476.466 178.409 476.466 180.705V182.597H455.006V178.438H470.551C470.54 177.256 470.284 176.205 469.784 175.284C469.284 174.352 468.585 173.619 467.688 173.085C466.801 172.551 465.767 172.284 464.585 172.284C463.324 172.284 462.216 172.591 461.261 173.205C460.307 173.807 459.563 174.602 459.028 175.591C458.506 176.568 458.239 177.642 458.227 178.812V182.443C458.227 183.966 458.506 185.273 459.062 186.364C459.619 187.443 460.398 188.273 461.398 188.852C462.398 189.42 463.568 189.705 464.909 189.705C465.807 189.705 466.619 189.58 467.347 189.33C468.074 189.068 468.705 188.688 469.239 188.188C469.773 187.688 470.176 187.068 470.449 186.33L476.21 186.977C475.847 188.5 475.153 189.83 474.131 190.966C473.119 192.091 471.824 192.966 470.244 193.591C468.665 194.205 466.858 194.511 464.824 194.511Z" fill="white"/>
<path d="M158.778 264.307C157.407 264.307 156.18 263.955 155.097 263.25C154.013 262.545 153.157 261.523 152.528 260.182C151.9 258.841 151.585 257.212 151.585 255.295C151.585 253.356 151.903 251.72 152.54 250.386C153.184 249.045 154.051 248.034 155.142 247.352C156.233 246.663 157.449 246.318 158.79 246.318C159.813 246.318 160.653 246.492 161.312 246.841C161.972 247.182 162.494 247.595 162.881 248.08C163.267 248.557 163.566 249.008 163.778 249.432H163.949V240.727H168.074V264H164.028V261.25H163.778C163.566 261.674 163.259 262.125 162.858 262.602C162.456 263.072 161.926 263.473 161.267 263.807C160.608 264.14 159.778 264.307 158.778 264.307ZM159.926 260.932C160.797 260.932 161.54 260.697 162.153 260.227C162.767 259.75 163.233 259.087 163.551 258.239C163.869 257.39 164.028 256.402 164.028 255.273C164.028 254.144 163.869 253.163 163.551 252.33C163.241 251.496 162.778 250.848 162.165 250.386C161.559 249.924 160.813 249.693 159.926 249.693C159.009 249.693 158.244 249.932 157.631 250.409C157.017 250.886 156.555 251.545 156.244 252.386C155.934 253.227 155.778 254.189 155.778 255.273C155.778 256.364 155.934 257.337 156.244 258.193C156.563 259.042 157.028 259.712 157.642 260.205C158.263 260.689 159.025 260.932 159.926 260.932ZM180.071 264.341C178.366 264.341 176.889 263.966 175.639 263.216C174.389 262.466 173.42 261.417 172.73 260.068C172.048 258.72 171.707 257.144 171.707 255.341C171.707 253.538 172.048 251.958 172.73 250.602C173.42 249.246 174.389 248.193 175.639 247.443C176.889 246.693 178.366 246.318 180.071 246.318C181.776 246.318 183.253 246.693 184.503 247.443C185.753 248.193 186.719 249.246 187.401 250.602C188.09 251.958 188.435 253.538 188.435 255.341C188.435 257.144 188.09 258.72 187.401 260.068C186.719 261.417 185.753 262.466 184.503 263.216C183.253 263.966 181.776 264.341 180.071 264.341ZM180.094 261.045C181.018 261.045 181.791 260.792 182.412 260.284C183.033 259.769 183.495 259.08 183.798 258.216C184.109 257.352 184.264 256.39 184.264 255.33C184.264 254.261 184.109 253.295 183.798 252.432C183.495 251.561 183.033 250.867 182.412 250.352C181.791 249.837 181.018 249.58 180.094 249.58C179.147 249.58 178.359 249.837 177.73 250.352C177.109 250.867 176.643 251.561 176.332 252.432C176.029 253.295 175.878 254.261 175.878 255.33C175.878 256.39 176.029 257.352 176.332 258.216C176.643 259.08 177.109 259.769 177.73 260.284C178.359 260.792 179.147 261.045 180.094 261.045ZM191.926 264V246.545H195.915V249.455H196.097C196.415 248.447 196.96 247.67 197.733 247.125C198.513 246.572 199.403 246.295 200.403 246.295C200.631 246.295 200.884 246.307 201.165 246.33C201.453 246.345 201.691 246.371 201.881 246.409V250.193C201.706 250.133 201.43 250.08 201.051 250.034C200.68 249.981 200.32 249.955 199.972 249.955C199.222 249.955 198.547 250.117 197.949 250.443C197.358 250.761 196.892 251.205 196.551 251.773C196.21 252.341 196.04 252.996 196.04 253.739V264H191.926ZM209.324 264.352C208.218 264.352 207.222 264.155 206.335 263.761C205.456 263.36 204.759 262.769 204.244 261.989C203.737 261.208 203.483 260.246 203.483 259.102C203.483 258.117 203.665 257.303 204.028 256.659C204.392 256.015 204.888 255.5 205.517 255.114C206.146 254.727 206.854 254.436 207.642 254.239C208.438 254.034 209.259 253.886 210.108 253.795C211.131 253.689 211.96 253.595 212.597 253.511C213.233 253.42 213.695 253.284 213.983 253.102C214.278 252.913 214.426 252.621 214.426 252.227V252.159C214.426 251.303 214.172 250.64 213.665 250.17C213.157 249.701 212.426 249.466 211.472 249.466C210.464 249.466 209.665 249.686 209.074 250.125C208.491 250.564 208.097 251.083 207.892 251.682L204.051 251.136C204.354 250.076 204.854 249.189 205.551 248.477C206.248 247.758 207.1 247.22 208.108 246.864C209.116 246.5 210.229 246.318 211.449 246.318C212.29 246.318 213.127 246.417 213.96 246.614C214.794 246.811 215.555 247.136 216.244 247.591C216.934 248.038 217.487 248.648 217.903 249.42C218.328 250.193 218.54 251.159 218.54 252.318V264H214.585V261.602H214.449C214.199 262.087 213.847 262.542 213.392 262.966C212.945 263.383 212.381 263.72 211.699 263.977C211.025 264.227 210.233 264.352 209.324 264.352ZM210.392 261.33C211.218 261.33 211.934 261.167 212.54 260.841C213.146 260.508 213.612 260.068 213.938 259.523C214.271 258.977 214.438 258.383 214.438 257.739V255.682C214.309 255.788 214.089 255.886 213.778 255.977C213.475 256.068 213.134 256.148 212.756 256.216C212.377 256.284 212.002 256.345 211.631 256.398C211.259 256.451 210.938 256.496 210.665 256.534C210.051 256.617 209.502 256.754 209.017 256.943C208.532 257.133 208.15 257.398 207.869 257.739C207.589 258.072 207.449 258.504 207.449 259.034C207.449 259.792 207.725 260.364 208.278 260.75C208.831 261.136 209.536 261.33 210.392 261.33ZM235.574 264V267.284H220.54V264H235.574ZM246.361 246.545V249.727H236.327V246.545H246.361ZM238.804 242.364H242.918V258.75C242.918 259.303 243.001 259.727 243.168 260.023C243.342 260.311 243.569 260.508 243.849 260.614C244.13 260.72 244.44 260.773 244.781 260.773C245.039 260.773 245.274 260.754 245.486 260.716C245.705 260.678 245.872 260.644 245.986 260.614L246.679 263.83C246.459 263.905 246.145 263.989 245.736 264.08C245.334 264.17 244.842 264.223 244.259 264.239C243.228 264.269 242.3 264.114 241.474 263.773C240.649 263.424 239.993 262.886 239.509 262.159C239.031 261.432 238.796 260.523 238.804 259.432V242.364ZM254.29 253.773V264H250.176V240.727H254.199V249.511H254.403C254.813 248.527 255.445 247.75 256.301 247.182C257.165 246.606 258.263 246.318 259.597 246.318C260.809 246.318 261.866 246.572 262.767 247.08C263.669 247.587 264.366 248.33 264.858 249.307C265.358 250.284 265.608 251.477 265.608 252.886V264H261.494V253.523C261.494 252.348 261.191 251.436 260.585 250.784C259.987 250.125 259.146 249.795 258.062 249.795C257.335 249.795 256.684 249.955 256.108 250.273C255.54 250.583 255.093 251.034 254.767 251.625C254.449 252.216 254.29 252.932 254.29 253.773ZM277.528 264.341C275.778 264.341 274.267 263.977 272.994 263.25C271.729 262.515 270.756 261.477 270.074 260.136C269.392 258.788 269.051 257.201 269.051 255.375C269.051 253.58 269.392 252.004 270.074 250.648C270.763 249.284 271.725 248.223 272.96 247.466C274.195 246.701 275.646 246.318 277.312 246.318C278.388 246.318 279.403 246.492 280.358 246.841C281.32 247.182 282.169 247.712 282.903 248.432C283.646 249.152 284.229 250.068 284.653 251.182C285.078 252.288 285.29 253.606 285.29 255.136V256.398H270.983V253.625H281.347C281.339 252.837 281.169 252.136 280.835 251.523C280.502 250.902 280.036 250.413 279.438 250.057C278.847 249.701 278.157 249.523 277.369 249.523C276.528 249.523 275.79 249.727 275.153 250.136C274.517 250.538 274.021 251.068 273.665 251.727C273.316 252.379 273.138 253.095 273.131 253.875V256.295C273.131 257.311 273.316 258.182 273.688 258.909C274.059 259.629 274.578 260.182 275.244 260.568C275.911 260.947 276.691 261.136 277.585 261.136C278.184 261.136 278.725 261.053 279.21 260.886C279.695 260.712 280.116 260.458 280.472 260.125C280.828 259.792 281.097 259.379 281.278 258.886L285.119 259.318C284.877 260.333 284.415 261.22 283.733 261.977C283.059 262.727 282.195 263.311 281.142 263.727C280.089 264.136 278.884 264.341 277.528 264.341ZM301.668 264V267.284H286.634V264H301.668ZM304.832 264V246.545H308.946V264H304.832ZM306.901 244.068C306.249 244.068 305.688 243.852 305.219 243.42C304.749 242.981 304.514 242.455 304.514 241.841C304.514 241.22 304.749 240.693 305.219 240.261C305.688 239.822 306.249 239.602 306.901 239.602C307.56 239.602 308.12 239.822 308.582 240.261C309.052 240.693 309.287 241.22 309.287 241.841C309.287 242.455 309.052 242.981 308.582 243.42C308.12 243.852 307.56 244.068 306.901 244.068ZM317.29 253.773V264H313.176V246.545H317.108V249.511H317.312C317.714 248.534 318.354 247.758 319.233 247.182C320.119 246.606 321.214 246.318 322.517 246.318C323.722 246.318 324.771 246.576 325.665 247.091C326.566 247.606 327.263 248.352 327.756 249.33C328.256 250.307 328.502 251.492 328.494 252.886V264H324.381V253.523C324.381 252.356 324.078 251.443 323.472 250.784C322.873 250.125 322.044 249.795 320.983 249.795C320.263 249.795 319.623 249.955 319.062 250.273C318.509 250.583 318.074 251.034 317.756 251.625C317.445 252.216 317.29 252.932 317.29 253.773ZM341.392 246.545V249.727H331.358V246.545H341.392ZM333.835 242.364H337.949V258.75C337.949 259.303 338.032 259.727 338.199 260.023C338.373 260.311 338.6 260.508 338.881 260.614C339.161 260.72 339.472 260.773 339.812 260.773C340.07 260.773 340.305 260.754 340.517 260.716C340.737 260.678 340.903 260.644 341.017 260.614L341.71 263.83C341.491 263.905 341.176 263.989 340.767 264.08C340.366 264.17 339.873 264.223 339.29 264.239C338.259 264.269 337.331 264.114 336.506 263.773C335.68 263.424 335.025 262.886 334.54 262.159C334.063 261.432 333.828 260.523 333.835 259.432V242.364ZM352.372 264.341C350.622 264.341 349.111 263.977 347.838 263.25C346.573 262.515 345.599 261.477 344.918 260.136C344.236 258.788 343.895 257.201 343.895 255.375C343.895 253.58 344.236 252.004 344.918 250.648C345.607 249.284 346.569 248.223 347.804 247.466C349.039 246.701 350.49 246.318 352.156 246.318C353.232 246.318 354.247 246.492 355.202 246.841C356.164 247.182 357.012 247.712 357.747 248.432C358.49 249.152 359.073 250.068 359.497 251.182C359.921 252.288 360.134 253.606 360.134 255.136V256.398H345.827V253.625H356.19C356.183 252.837 356.012 252.136 355.679 251.523C355.346 250.902 354.88 250.413 354.281 250.057C353.69 249.701 353.001 249.523 352.213 249.523C351.372 249.523 350.634 249.727 349.997 250.136C349.361 250.538 348.865 251.068 348.509 251.727C348.16 252.379 347.982 253.095 347.974 253.875V256.295C347.974 257.311 348.16 258.182 348.531 258.909C348.902 259.629 349.421 260.182 350.088 260.568C350.755 260.947 351.535 261.136 352.429 261.136C353.027 261.136 353.569 261.053 354.054 260.886C354.539 260.712 354.959 260.458 355.315 260.125C355.671 259.792 355.94 259.379 356.122 258.886L359.963 259.318C359.721 260.333 359.259 261.22 358.577 261.977C357.902 262.727 357.039 263.311 355.986 263.727C354.933 264.136 353.728 264.341 352.372 264.341ZM363.614 264V246.545H367.602V249.455H367.784C368.102 248.447 368.648 247.67 369.42 247.125C370.201 246.572 371.091 246.295 372.091 246.295C372.318 246.295 372.572 246.307 372.852 246.33C373.14 246.345 373.379 246.371 373.568 246.409V250.193C373.394 250.133 373.117 250.08 372.739 250.034C372.367 249.981 372.008 249.955 371.659 249.955C370.909 249.955 370.235 250.117 369.636 250.443C369.045 250.761 368.58 251.205 368.239 251.773C367.898 252.341 367.727 252.996 367.727 253.739V264H363.614ZM380.415 253.773V264H376.301V246.545H380.233V249.511H380.438C380.839 248.534 381.479 247.758 382.358 247.182C383.244 246.606 384.339 246.318 385.642 246.318C386.847 246.318 387.896 246.576 388.79 247.091C389.691 247.606 390.388 248.352 390.881 249.33C391.381 250.307 391.627 251.492 391.619 252.886V264H387.506V253.523C387.506 252.356 387.203 251.443 386.597 250.784C385.998 250.125 385.169 249.795 384.108 249.795C383.388 249.795 382.748 249.955 382.188 250.273C381.634 250.583 381.199 251.034 380.881 251.625C380.57 252.216 380.415 252.932 380.415 253.773ZM403.528 264.341C401.778 264.341 400.267 263.977 398.994 263.25C397.729 262.515 396.756 261.477 396.074 260.136C395.392 258.788 395.051 257.201 395.051 255.375C395.051 253.58 395.392 252.004 396.074 250.648C396.763 249.284 397.725 248.223 398.96 247.466C400.195 246.701 401.646 246.318 403.312 246.318C404.388 246.318 405.403 246.492 406.358 246.841C407.32 247.182 408.169 247.712 408.903 248.432C409.646 249.152 410.229 250.068 410.653 251.182C411.078 252.288 411.29 253.606 411.29 255.136V256.398H396.983V253.625H407.347C407.339 252.837 407.169 252.136 406.835 251.523C406.502 250.902 406.036 250.413 405.438 250.057C404.847 249.701 404.157 249.523 403.369 249.523C402.528 249.523 401.79 249.727 401.153 250.136C400.517 250.538 400.021 251.068 399.665 251.727C399.316 252.379 399.138 253.095 399.131 253.875V256.295C399.131 257.311 399.316 258.182 399.688 258.909C400.059 259.629 400.578 260.182 401.244 260.568C401.911 260.947 402.691 261.136 403.585 261.136C404.184 261.136 404.725 261.053 405.21 260.886C405.695 260.712 406.116 260.458 406.472 260.125C406.828 259.792 407.097 259.379 407.278 258.886L411.119 259.318C410.877 260.333 410.415 261.22 409.733 261.977C409.059 262.727 408.195 263.311 407.142 263.727C406.089 264.136 404.884 264.341 403.528 264.341ZM423.486 246.545V249.727H413.452V246.545H423.486ZM415.929 242.364H420.043V258.75C420.043 259.303 420.126 259.727 420.293 260.023C420.467 260.311 420.694 260.508 420.974 260.614C421.255 260.72 421.565 260.773 421.906 260.773C422.164 260.773 422.399 260.754 422.611 260.716C422.83 260.678 422.997 260.644 423.111 260.614L423.804 263.83C423.584 263.905 423.27 263.989 422.861 264.08C422.459 264.17 421.967 264.223 421.384 264.239C420.353 264.269 419.425 264.114 418.599 263.773C417.774 263.424 417.118 262.886 416.634 262.159C416.156 261.432 415.921 260.523 415.929 259.432V242.364ZM439.824 264V267.284H424.79V264H439.824ZM449.622 264.341C447.872 264.341 446.361 263.977 445.088 263.25C443.823 262.515 442.849 261.477 442.168 260.136C441.486 258.788 441.145 257.201 441.145 255.375C441.145 253.58 441.486 252.004 442.168 250.648C442.857 249.284 443.819 248.223 445.054 247.466C446.289 246.701 447.74 246.318 449.406 246.318C450.482 246.318 451.497 246.492 452.452 246.841C453.414 247.182 454.262 247.712 454.997 248.432C455.74 249.152 456.323 250.068 456.747 251.182C457.171 252.288 457.384 253.606 457.384 255.136V256.398H443.077V253.625H453.44C453.433 252.837 453.262 252.136 452.929 251.523C452.596 250.902 452.13 250.413 451.531 250.057C450.94 249.701 450.251 249.523 449.463 249.523C448.622 249.523 447.884 249.727 447.247 250.136C446.611 250.538 446.115 251.068 445.759 251.727C445.41 252.379 445.232 253.095 445.224 253.875V256.295C445.224 257.311 445.41 258.182 445.781 258.909C446.152 259.629 446.671 260.182 447.338 260.568C448.005 260.947 448.785 261.136 449.679 261.136C450.277 261.136 450.819 261.053 451.304 260.886C451.789 260.712 452.209 260.458 452.565 260.125C452.921 259.792 453.19 259.379 453.372 258.886L457.213 259.318C456.971 260.333 456.509 261.22 455.827 261.977C455.152 262.727 454.289 263.311 453.236 263.727C452.183 264.136 450.978 264.341 449.622 264.341ZM463.852 246.545L467.375 252.989L470.955 246.545H475.307L470.045 255.273L475.398 264H471.068L467.375 257.716L463.716 264H459.352L464.67 255.273L459.489 246.545H463.852ZM478.489 270.545V246.545H482.534V249.432H482.773C482.985 249.008 483.284 248.557 483.67 248.08C484.057 247.595 484.58 247.182 485.239 246.841C485.898 246.492 486.739 246.318 487.761 246.318C489.11 246.318 490.326 246.663 491.409 247.352C492.5 248.034 493.364 249.045 494 250.386C494.644 251.72 494.966 253.356 494.966 255.295C494.966 257.212 494.652 258.841 494.023 260.182C493.394 261.523 492.538 262.545 491.455 263.25C490.371 263.955 489.144 264.307 487.773 264.307C486.773 264.307 485.943 264.14 485.284 263.807C484.625 263.473 484.095 263.072 483.693 262.602C483.299 262.125 482.992 261.674 482.773 261.25H482.602V270.545H478.489ZM482.523 255.273C482.523 256.402 482.682 257.39 483 258.239C483.326 259.087 483.792 259.75 484.398 260.227C485.011 260.697 485.754 260.932 486.625 260.932C487.534 260.932 488.295 260.689 488.909 260.205C489.523 259.712 489.985 259.042 490.295 258.193C490.614 257.337 490.773 256.364 490.773 255.273C490.773 254.189 490.617 253.227 490.307 252.386C489.996 251.545 489.534 250.886 488.92 250.409C488.307 249.932 487.542 249.693 486.625 249.693C485.746 249.693 485 249.924 484.386 250.386C483.773 250.848 483.307 251.496 482.989 252.33C482.678 253.163 482.523 254.144 482.523 255.273ZM502.602 240.727V264H498.489V240.727H502.602ZM514.446 264.341C512.741 264.341 511.264 263.966 510.014 263.216C508.764 262.466 507.795 261.417 507.105 260.068C506.423 258.72 506.082 257.144 506.082 255.341C506.082 253.538 506.423 251.958 507.105 250.602C507.795 249.246 508.764 248.193 510.014 247.443C511.264 246.693 512.741 246.318 514.446 246.318C516.151 246.318 517.628 246.693 518.878 247.443C520.128 248.193 521.094 249.246 521.776 250.602C522.465 251.958 522.81 253.538 522.81 255.341C522.81 257.144 522.465 258.72 521.776 260.068C521.094 261.417 520.128 262.466 518.878 263.216C517.628 263.966 516.151 264.341 514.446 264.341ZM514.469 261.045C515.393 261.045 516.166 260.792 516.787 260.284C517.408 259.769 517.87 259.08 518.173 258.216C518.484 257.352 518.639 256.39 518.639 255.33C518.639 254.261 518.484 253.295 518.173 252.432C517.87 251.561 517.408 250.867 516.787 250.352C516.166 249.837 515.393 249.58 514.469 249.58C513.522 249.58 512.734 249.837 512.105 250.352C511.484 250.867 511.018 251.561 510.707 252.432C510.404 253.295 510.253 254.261 510.253 255.33C510.253 256.39 510.404 257.352 510.707 258.216C511.018 259.08 511.484 259.769 512.105 260.284C512.734 260.792 513.522 261.045 514.469 261.045ZM526.301 264V246.545H530.29V249.455H530.472C530.79 248.447 531.335 247.67 532.108 247.125C532.888 246.572 533.778 246.295 534.778 246.295C535.006 246.295 535.259 246.307 535.54 246.33C535.828 246.345 536.066 246.371 536.256 246.409V250.193C536.081 250.133 535.805 250.08 535.426 250.034C535.055 249.981 534.695 249.955 534.347 249.955C533.597 249.955 532.922 250.117 532.324 250.443C531.733 250.761 531.267 251.205 530.926 251.773C530.585 252.341 530.415 252.996 530.415 253.739V264H526.301ZM545.997 264.341C544.247 264.341 542.736 263.977 541.463 263.25C540.198 262.515 539.224 261.477 538.543 260.136C537.861 258.788 537.52 257.201 537.52 255.375C537.52 253.58 537.861 252.004 538.543 250.648C539.232 249.284 540.194 248.223 541.429 247.466C542.664 246.701 544.115 246.318 545.781 246.318C546.857 246.318 547.872 246.492 548.827 246.841C549.789 247.182 550.637 247.712 551.372 248.432C552.115 249.152 552.698 250.068 553.122 251.182C553.546 252.288 553.759 253.606 553.759 255.136V256.398H539.452V253.625H549.815C549.808 252.837 549.637 252.136 549.304 251.523C548.971 250.902 548.505 250.413 547.906 250.057C547.315 249.701 546.626 249.523 545.838 249.523C544.997 249.523 544.259 249.727 543.622 250.136C542.986 250.538 542.49 251.068 542.134 251.727C541.785 252.379 541.607 253.095 541.599 253.875V256.295C541.599 257.311 541.785 258.182 542.156 258.909C542.527 259.629 543.046 260.182 543.713 260.568C544.38 260.947 545.16 261.136 546.054 261.136C546.652 261.136 547.194 261.053 547.679 260.886C548.164 260.712 548.584 260.458 548.94 260.125C549.296 259.792 549.565 259.379 549.747 258.886L553.588 259.318C553.346 260.333 552.884 261.22 552.202 261.977C551.527 262.727 550.664 263.311 549.611 263.727C548.558 264.136 547.353 264.341 545.997 264.341ZM557.239 264V246.545H561.227V249.455H561.409C561.727 248.447 562.273 247.67 563.045 247.125C563.826 246.572 564.716 246.295 565.716 246.295C565.943 246.295 566.197 246.307 566.477 246.33C566.765 246.345 567.004 246.371 567.193 246.409V250.193C567.019 250.133 566.742 250.08 566.364 250.034C565.992 249.981 565.633 249.955 565.284 249.955C564.534 249.955 563.86 250.117 563.261 250.443C562.67 250.761 562.205 251.205 561.864 251.773C561.523 252.341 561.352 252.996 561.352 253.739V264H557.239Z" fill="white"/>
<path d="M172.936 589H316.908C335.818 589 350 596.017 350 611.103V663.729C350 693.901 304.874 688.287 269.633 676.71C234.393 665.132 169.068 630.048 155.315 613.208C141.563 596.368 157.034 589 172.936 589Z" fill="#FC6700"/>
<path d="M553.064 590H409.092C390.182 590 376 596.944 376 611.875V663.958C376 693.819 421.126 688.264 456.367 676.806C491.607 665.347 556.932 630.625 570.685 613.958C584.437 597.292 568.966 590 553.064 590Z" fill="#5FB001"/>
<path d="M447 633.323L458.765 646L480 611" stroke="white" stroke-width="9" stroke-linecap="round" stroke-linejoin="round"/>
<line x1="257.364" y1="616" x2="286.231" y2="644.867" stroke="white" stroke-width="9" stroke-linecap="round"/>
<line x1="4.5" y1="-4.5" x2="45.3239" y2="-4.5" transform="matrix(-0.707107 0.707107 0.707107 0.707107 291.592 616)" stroke="white" stroke-width="9" stroke-linecap="round"/>
</g>
<defs>
<clipPath id="clip0_183_276">
<rect width="720" height="720" fill="white"/>
</clipPath>
</defs>
</svg>
